<svg id="Layer_1" data-name="Layer 1" xmlns="http://www.w3.org/2000/svg" viewBox="0 0 602.81 99.72">
  <g>
    <path d="M91.48,215.89h11.94V151.33l14.46,20.46v58.55H105.94Zm12.48-84,25.68,14.46,20,28.32v22Zm45,84h12.6v-84L176,146.35v84h-12.6Z" transform="translate(-91.48 -131.89)"/>
    <path d="M196.36,173.83c0-17.4,13.26-31.5,30.12-31.5A29.71,29.71,0,0,1,253,158.71,23.22,23.22,0,0,0,239.74,155c-16.86,0-30.12,14.1-30.12,31.5,0,6.12,1.08,11.64,4.74,16.38C203.92,198.19,196.36,187.15,196.36,173.83Zm12.84,43.74-12.12-12.12a42.39,42.39,0,0,0,29.4,11.94c23.52,0,42.72-19.44,42.72-43.56A43.68,43.68,0,0,0,257.38,144l11,11.1c8.94,9,14.7,19.2,14.7,33.24,0,24-19,43.31-42.12,43.31C228,231.6,217.84,226.21,209.2,217.57Z" transform="translate(-91.48 -131.89)"/>
    <path d="M273.52,143.59h25.92v13.86H288Zm25.92,72.3h12.3v-72.3H337.6v-11.7l14.46,14.46v11.1H326.2v72.89H313.9Z" transform="translate(-91.48 -131.89)"/>
    <path d="M359.26,215.89h56.52V204.55L430.24,219v11.33H373.72Zm12.18-72.78H414V131.89l14.46,14.46V157H385.9v10.26H371.44Zm0,35.58H407.2V167.23l14.46,14.46v10.86H385.9v12H371.44Z" transform="translate(-91.48 -131.89)"/>
    <path d="M437.86,215.89h53.46V204.25l14.46,14.46v11.63H452.32Zm12.3-84,14.46,14.46v57.9H450.16Z" transform="translate(-91.48 -131.89)"/>
    <path d="M506.26,215.89h13.2l8.1-20h41.22l5.82,14.46H539l-8.1,20h-11.4Zm41.94-71,7.86,18.9-8.76,20.82H531.64Zm28.62,71h13.32l-34.86-84,20.46,14.46,34.86,84H596.32Z" transform="translate(-91.48 -131.89)"/>
    <path d="M610.9,131.89V132h-.06v-.06Zm-.06,84h25.32c26.1,0,44.28-17.16,44.28-41.88,0-11.34-3.9-21.78-11.64-29.52L681.4,157c8.4,8.4,12.9,18.06,12.9,31.44,0,24.72-17.94,41.87-43.68,41.87H625.3Zm12.3-72.24h13c14.46,0,25,6.84,29.52,17.76-4.2-3-8.88-3.9-15.06-3.9h-13v46.92H623.14Z" transform="translate(-91.48 -131.89)"/>
  </g>
</svg>
